<svg xmlns="http://www.w3.org/2000/svg" width="24" height="21" viewBox="0 0 24 21">
  <metadata><?xpacket begin="﻿" id="W5M0MpCehiHzreSzNTczkc9d"?>
<x:xmpmeta xmlns:x="adobe:ns:meta/" x:xmptk="Adobe XMP Core 5.6-c142 79.160924, 2017/07/13-01:06:39        ">
   <rdf:RDF xmlns:rdf="http://www.w3.org/1999/02/22-rdf-syntax-ns#">
      <rdf:Description rdf:about=""/>
   </rdf:RDF>
</x:xmpmeta>
                                                                                                    
                                                                                                    
                                                                                                    
                                                                                                    
                                                                                                    
                                                                                                    
                                                                                                    
                                                                                                    
                                                                                                    
                                                                                                    
                                                                                                    
                                                                                                    
                                                                                                    
                                                                                                    
                                                                                                    
                                                                                                    
                                                                                                    
                                                                                                    
                                                                                                    
                                                                                                    
                           
<?xpacket end="w"?></metadata>
<defs>
    <style>
      .cls-1 {
        fill-rule: evenodd;
      }
    </style>
  </defs>
  <path id="google_plus" data-name="google plus" class="cls-1" d="M338,793.748h-3.75v-3.726h-1.5v3.726H329v1.524h3.75V799h1.5v-3.726H338v-1.524Zm-13.418,8.3c-0.572-.4-1.666-1.39-1.666-1.969,0-.678.194-1.013,1.215-1.81a4.151,4.151,0,0,0,1.858-3.211,3.922,3.922,0,0,0-2.111-3.56h2.007L327.3,790h-6.329c-2.838,0-5.509,2.292-5.509,4.783a4.63,4.63,0,0,0,4.821,4.67c0.2,0,.4.031,0.587,0.017a2.659,2.659,0,0,0-.321,1.2,2.479,2.479,0,0,0,.861,1.758c-0.363,0-.714.015-1.1,0.015-3.515,0-6.314,2.241-6.314,4.563,0,2.285,3.059,4,6.575,4,4.007,0,6.173-2.554,6.173-4.841A4.373,4.373,0,0,0,324.582,802.048Zm-3.382-3.171c-1.631-.049-3.181-1.825-3.462-3.966s0.812-3.78,2.442-3.732,3.251,1.767,3.533,3.908S322.83,798.926,321.2,798.877Zm-0.638,10.647c-2.43,0-4.185-1.351-4.185-3.2,0-1.81,2.177-3.318,4.607-3.292a5.253,5.253,0,0,1,1.574.253c1.319,0.917,2.265,1.435,2.532,2.48a2.852,2.852,0,0,1,.078.653C325.168,808.268,323.977,809.524,320.562,809.524Z" transform="translate(-314 -790)"/>
</svg>
