<svg xmlns="http://www.w3.org/2000/svg" width="24" height="24" viewBox="0 0 24 24">
  <metadata><?xpacket begin="﻿" id="W5M0MpCehiHzreSzNTczkc9d"?>
<x:xmpmeta xmlns:x="adobe:ns:meta/" x:xmptk="Adobe XMP Core 5.6-c142 79.160924, 2017/07/13-01:06:39        ">
   <rdf:RDF xmlns:rdf="http://www.w3.org/1999/02/22-rdf-syntax-ns#">
      <rdf:Description rdf:about=""/>
   </rdf:RDF>
</x:xmpmeta>
                                                                                                    
                                                                                                    
                                                                                                    
                                                                                                    
                                                                                                    
                                                                                                    
                                                                                                    
                                                                                                    
                                                                                                    
                                                                                                    
                                                                                                    
                                                                                                    
                                                                                                    
                                                                                                    
                                                                                                    
                                                                                                    
                                                                                                    
                                                                                                    
                                                                                                    
                                                                                                    
                           
<?xpacket end="w"?></metadata>
<defs>
    <style>
      .cls-1 {
        fill-rule: evenodd;
      }
    </style>
  </defs>
  <path id="Instagram" class="cls-1" d="M452.5,810.75h-15a4.5,4.5,0,0,1-4.5-4.5v-15a4.5,4.5,0,0,1,4.5-4.5h15a4.5,4.5,0,0,1,4.5,4.5v15A4.5,4.5,0,0,1,452.5,810.75Zm-18-4.5a3,3,0,0,0,3,3h15a3,3,0,0,0,3-3v-12h-21v12ZM451.75,789h1.5a1.5,1.5,0,0,1,1.5,1.5v0.75a1.5,1.5,0,0,1-1.5,1.5h-1.5a1.5,1.5,0,0,1-1.5-1.5V790.5A1.5,1.5,0,0,1,451.75,789ZM445,792.629a6.121,6.121,0,1,1-6.121,6.121A6.121,6.121,0,0,1,445,792.629Zm0,2.3a4.568,4.568,0,1,1-4.568,4.568A4.568,4.568,0,0,1,445,794.932ZM434.5,786H436v9h-1.5v-9Zm3-.75H439V795h-1.5v-9.75Zm7.5,11.2a3.046,3.046,0,1,1-3.046,3.046A3.046,3.046,0,0,1,445,796.454Z" transform="translate(-433 -786.75)"/>
</svg>
