<svg xmlns="http://www.w3.org/2000/svg" width="24" height="24" viewBox="0 0 24 24">
  <metadata><?xpacket begin="﻿" id="W5M0MpCehiHzreSzNTczkc9d"?>
<x:xmpmeta xmlns:x="adobe:ns:meta/" x:xmptk="Adobe XMP Core 5.6-c142 79.160924, 2017/07/13-01:06:39        ">
   <rdf:RDF xmlns:rdf="http://www.w3.org/1999/02/22-rdf-syntax-ns#">
      <rdf:Description rdf:about=""/>
   </rdf:RDF>
</x:xmpmeta>
                                                                                                    
                                                                                                    
                                                                                                    
                                                                                                    
                                                                                                    
                                                                                                    
                                                                                                    
                                                                                                    
                                                                                                    
                                                                                                    
                                                                                                    
                                                                                                    
                                                                                                    
                                                                                                    
                                                                                                    
                                                                                                    
                                                                                                    
                                                                                                    
                                                                                                    
                                                                                                    
                           
<?xpacket end="w"?></metadata>
<defs>
    <style>
      .cls-1 {
        fill-rule: evenodd;
      }
    </style>
  </defs>
  <path id="pinterest" class="cls-1" d="M385,786.969a12,12,0,0,0-4.751,23.023,10.642,10.642,0,0,1,.211-2.738c0.233-.976,1.551-6.562,1.551-6.562a4.639,4.639,0,0,1-.385-1.907c0-1.783,1.035-3.117,2.322-3.117a1.614,1.614,0,0,1,1.625,1.81,25.852,25.852,0,0,1-1.064,4.272,1.866,1.866,0,0,0,1.9,2.32c2.28,0,3.816-2.931,3.816-6.4,0-2.638-1.775-4.615-5.009-4.615a5.705,5.705,0,0,0-5.931,5.768,3.474,3.474,0,0,0,.8,2.362,0.585,0.585,0,0,1,.172.673c-0.059.22-.189,0.754-0.244,0.966a0.415,0.415,0,0,1-.6.3c-1.681-.686-2.467-2.529-2.467-4.6,0-3.422,2.886-7.524,8.608-7.524,4.6,0,7.625,3.329,7.625,6.9,0,4.727-2.627,8.255-6.5,8.255a3.449,3.449,0,0,1-2.941-1.5s-0.7,2.773-.848,3.31a10.117,10.117,0,0,1-1.191,2.549A12,12,0,1,0,385,786.969Z" transform="translate(-373 -786.969)"/>
</svg>
