<svg xmlns="http://www.w3.org/2000/svg" width="24" height="20" viewBox="0 0 24 20">
  <metadata><?xpacket begin="﻿" id="W5M0MpCehiHzreSzNTczkc9d"?>
<x:xmpmeta xmlns:x="adobe:ns:meta/" x:xmptk="Adobe XMP Core 5.6-c142 79.160924, 2017/07/13-01:06:39        ">
   <rdf:RDF xmlns:rdf="http://www.w3.org/1999/02/22-rdf-syntax-ns#">
      <rdf:Description rdf:about=""/>
   </rdf:RDF>
</x:xmpmeta>
                                                                                                    
                                                                                                    
                                                                                                    
                                                                                                    
                                                                                                    
                                                                                                    
                                                                                                    
                                                                                                    
                                                                                                    
                                                                                                    
                                                                                                    
                                                                                                    
                                                                                                    
                                                                                                    
                                                                                                    
                                                                                                    
                                                                                                    
                                                                                                    
                                                                                                    
                                                                                                    
                           
<?xpacket end="w"?></metadata>
<defs>
    <style>
      .cls-1 {
        fill-rule: evenodd;
      }
    </style>
  </defs>
  <path id="twitter" class="cls-1" d="M277,792.4a8.484,8.484,0,0,1-2.746.8,5.381,5.381,0,0,0,2.063-2.758,7.885,7.885,0,0,1-3.088,1.124h0A4.882,4.882,0,0,0,269.65,790a5.016,5.016,0,0,0-4.951,5.077,5.226,5.226,0,0,0,.125,1.134h0a13.6,13.6,0,0,1-10.207-5.27,5.159,5.159,0,0,0,1.5,6.71,3.122,3.122,0,0,1-2.162-.575,4.879,4.879,0,0,0,3.819,4.964,3.832,3.832,0,0,1-2.061.16c0.157,1.494,2.2,3.446,4.426,3.446a8.665,8.665,0,0,1-7.14,2.109A14.6,14.6,0,0,0,260.745,810,13.953,13.953,0,0,0,274.6,795.169a0.127,0.127,0,0,1,0-.028c0-.021,0-0.042,0-0.064s0-.049,0-0.074A8.663,8.663,0,0,0,277,792.4Z" transform="translate(-253 -790)"/>
</svg>
